<mxfile host="app.diagrams.net" modified="2023-11-25T12:47:48.984Z" agent="Mozilla/5.0 (Macintosh; Intel Mac OS X 10_15_7) AppleWebKit/537.36 (KHTML, like Gecko) Chrome/119.0.0.0 Safari/537.36" version="22.1.4" etag="LdrkKhpPEgg3Ev2x5SZ8" type="github">
  <diagram name="Page-1" id="tPb8keNBD9E0w4v6ccai">
    <mxGraphModel>
      <root>
        <mxCell id="0" />
        <mxCell id="1" parent="0" />
      </root>
    </mxGraphModel>
  </diagram>
</mxfile>
